<?xml version="1.0" standalone="no"?>
<!DOCTYPE svg PUBLIC "-//W3C//DTD SVG 20010904//EN"
 "http://www.w3.org/TR/2001/REC-SVG-20010904/DTD/svg10.dtd">
<svg version="1.0" xmlns="http://www.w3.org/2000/svg"
 width="192.000000pt" height="192.000000pt" viewBox="0 0 192.000000 192.000000"
 preserveAspectRatio="xMidYMid meet">
<metadata>
Created by potrace 1.14, written by Peter Selinger 2001-2017
</metadata>
<g transform="translate(0.000000,192.000000) scale(0.100000,-0.100000)"
fill="#000000" stroke="none">
<path d="M835 1830 c-281 -44 -517 -211 -649 -461 -311 -586 111 -1289 774
-1289 465 0 848 359 877 821 22 356 -170 687 -490 844 -51 25 -128 54 -172 65
-93 24 -254 33 -340 20z m-150 -345 c100 -15 203 -71 285 -154 78 -80 116
-157 145 -293 l5 -28 110 0 110 0 0 50 c0 28 2 50 5 50 10 0 195 -142 195
-150 0 -8 -185 -150 -195 -150 -3 0 -5 23 -5 50 l0 50 -110 0 -110 0 -5 -27
c-18 -84 -31 -123 -57 -173 -78 -151 -234 -258 -405 -279 l-63 -7 0 51 0 52
57 7 c105 12 230 89 292 179 100 147 100 347 0 494 -62 90 -187 167 -292 179
l-57 7 0 54 c0 54 0 55 28 49 15 -2 45 -7 67 -11z m-68 -390 c13 -9 33 -31 46
-50 l22 -35 113 0 112 0 0 -50 0 -50 -112 -1 -113 0 -30 -42 c-100 -138 -311
-40 -279 129 8 42 69 110 106 117 37 8 110 -2 135 -18z"/>
<path d="M509 1007 c-27 -14 -38 -60 -18 -83 16 -20 63 -18 82 4 22 24 21 45
0 64 -30 25 -38 27 -64 15z"/>
</g>
</svg>
